{
  "asset": {
    "version": "2.0",
    "generator": "Sketchup glTF Exporter v1.2.6 by Centaur"
  },
  "scene": 0,
  "scenes": [
    {
      "nodes": [
        0
      ]
    }
  ],
  "samplers": [
    {
    }
  ],
  "nodes": [
    {
      "name": "root",
      "children": [
        1
      ]
    },
    {
      "name": "kisspngcomputericonssitecorelogoclipartsapicon5b558822d2e6294924402115323320668639.stl",
      "mesh": 0
    }
  ],
  "materials": [
    {
      "pbrMetallicRoughness": {
        "baseColorFactor": [
          0.5668,
          0.0161,
          0.0179,
          1.0
        ],
        "metallicFactor": 0.1,
        "roughnessFactor": 0.9
      },
      "name": "Sitecore"
    }
  ],
  "meshes": [
    {
      "primitives": [
        {
          "attributes": {
            "POSITION": 0,
            "NORMAL": 1
          },
          "indices": 2,
          "mode": 4,
          "material": 0
        }
      ]
    }
  ],
  "accessors": [
    {
      "bufferView": 0,
      "componentType": 5126,
      "count": 1594,
      "type": "VEC3",
      "min": [
        -0.0010601606057705514,
        -0.0001274729777050866,
        -0.0030187929835919177
      ],
      "max": [
        0.00030903731757451276,
        0.005908999543414023,
        0.003001207016408088
      ]
    },
    {
      "bufferView": 1,
      "componentType": 5126,
      "count": 1594,
      "type": "VEC3",
      "min": [
        -0.9999132138494259,
        -0.9999132138494259,
        -1.0
      ],
      "max": [
        0.9999132138494259,
        0.9999132138494259,
        1.0
      ]
    },
    {
      "bufferView": 2,
      "componentType": 5123,
      "count": 2556,
      "type": "SCALAR"
    }
  ],
  "bufferViews": [
    {
      "buffer": 0,
      "byteLength": 19128,
      "target": 34962,
      "byteStride": 12
    },
    {
      "buffer": 0,
      "byteOffset": 19128,
      "byteLength": 19128,
      "target": 34962,
      "byteStride": 12
    },
    {
      "buffer": 0,
      "byteOffset": 38256,
      "byteLength": 5112,
      "target": 34963
    }
  ],
  "buffers": [
    {
      "uri": "data:application/octet-stream;base64,",
      "byteLength": 43368
    }
  ]
}